<svg xmlns="http://www.w3.org/2000/svg" viewBox="0 0 187.3 253.3"><style>.st0{fill:none;stroke:#231f20;stroke-width:7;stroke-miterlimit:10}.st1{fill:#231f20}.st2{display:none}</style><g id="Layer_1"><path class="st0" d="M176 110.9l-51.7 40.3L9.8 132.5"/><path class="st0" d="M101.8 243.6l22.5-92.4L95.1 10.8"/><path class="st1" d="M95.1 10.8L176 110.9l-74.2 132.7-92-111.1L95.1 10.8m0-7h-.2c-2.2.1-4.2 1.2-5.5 3L4.1 128.5c-1.8 2.6-1.7 6.1.3 8.5l92 111.1c1.3 1.6 3.3 2.5 5.4 2.5h.6c2.3-.2 4.3-1.5 5.5-3.6l74.2-132.7c1.4-2.5 1.1-5.6-.7-7.8L100.5 6.4c-1.3-1.6-3.3-2.6-5.4-2.6z"/></g></svg>